<?xml version="1.0" encoding="UTF-8"?>
<svg width="24" height="24" viewBox="0 0 24 24" fill="white" xmlns="http://www.w3.org/2000/svg">
    <path d="M12 0C5.37321 0 0 5.37321 0 12C0 18.6268 5.37321 24 12 24C18.6268 24 24 18.6268 24 12C24 5.37321 18.6268 0 12 0ZM17.8446 8.19643C17.7054 9.07500 16.9821 12.3214 16.6179 13.8857C16.4571 14.6357 16.1357 14.8929 15.8357 14.9196C15.1821 14.9786 14.6786 14.4804 14.0357 14.0625C12.9964 13.3929 12.4018 12.9857 11.3946 12.3375C10.2375 11.5929 10.9821 11.1857 11.6411 10.5054C11.8232 10.3179 14.7054 7.71429 14.7696 7.47857C14.7777 7.44375 14.7857 7.32857 14.7161 7.26964C14.6464 7.21071 14.5446 7.23214 14.4696 7.24821C14.3625 7.27143 12.6429 8.41071 9.31071 10.6661C8.82321 10.9929 8.38393 11.1536 7.98214 11.1429C7.54286 11.1321 6.69643 10.8857 6.07500 10.6768C5.31429 10.4250 4.70893 10.2911 4.76786 9.86250C4.79732 9.64018 5.10268 9.41250 5.68393 9.17946C9.24107 7.58036 11.6625 6.51429 12.9482 5.98125C16.6339 4.45714 17.3893 4.19464 17.8821 4.18393C17.9893 4.18125 18.2304 4.20804 18.3857 4.33393C18.5036 4.43036 18.5411 4.56161 18.5571 4.65268C18.5786 4.74375 18.6054 4.95536 18.5893 5.12143C18.4607 6.06964 17.8446 8.19643 17.8446 8.19643Z"/>
</svg> 