<?xml version="1.0" encoding="UTF-8"?>
<svg width="24" height="24" viewBox="0 0 24 24" fill="white" xmlns="http://www.w3.org/2000/svg">
    <path d="M20.4054 3.4875C18.1607 1.2375 15.1714 0 11.9946 0C5.4375 0 0.101786 5.33571 0.101786 11.8929C0.101786 13.9821 0.654464 16.0179 1.70357 17.8071L0 24L6.32143 22.3286C8.03571 23.2875 9.99643 23.7857 11.9946 23.7857C18.5518 23.7857 23.8875 18.45 23.8875 11.8929C23.8875 8.71607 22.65 5.7375 20.4054 3.4875ZM11.9946 21.7875C10.2054 21.7875 8.45893 21.3107 6.91071 20.4161L6.55714 20.2071L2.84464 21.1875L3.84643 17.5714L3.61607 17.2071C2.63571 15.6054 2.11071 13.775 2.11071 11.8929C2.11071 6.43929 6.54107 2.00893 12 2.00893C14.6786 2.00893 17.1857 3.04286 19.0714 4.93929C20.9571 6.825 21.9911 9.33214 21.9911 11.8929C21.9804 17.3464 17.4482 21.7875 11.9946 21.7875ZM17.4214 14.3893C17.1375 14.2446 15.6643 13.5214 15.4018 13.4304C15.1393 13.3393 14.9464 13.2911 14.7536 13.5857C14.5607 13.8804 13.9875 14.5554 13.8161 14.7482C13.6446 14.9411 13.4732 14.9625 13.1893 14.8179C12.9054 14.6732 11.9357 14.3679 10.8054 13.3607C9.92143 12.5732 9.32679 11.6089 9.15536 11.325C8.98393 11.0411 9.1875 10.8911 9.33214 10.7357C9.9375 9.98036 9.9375 9.25714 9.84643 9.06429C9.75536 8.87143 9.32679 7.39821 9.08036 6.83036C8.83393 6.27857 8.57143 6.35357 8.4 6.34286C8.22857 6.33214 8.03571 6.33214 7.84286 6.33214C7.65 6.33214 7.34464 6.42321 7.08214 6.70714C6.81964 6.99107 6.05357 7.71429 6.05357 9.1875C6.05357 10.6607 7.125 12.0804 7.27857 12.2732C7.43214 12.4661 9.31607 15.3857 12.2143 16.6875C12.9375 17.0054 13.5 17.1929 13.9339 17.3357C14.6571 17.5714 15.3161 17.5339 15.8357 17.4429C16.4143 17.3411 17.6089 16.7036 17.8554 16.0393C18.1125 15.375 18.1125 14.8071 18.0214 14.7482C17.9304 14.6893 17.7054 14.5982 17.4214 14.3893Z"/>
</svg> 